<?xml version="1.0" standalone="no"?>
<!DOCTYPE svg PUBLIC "-//W3C//DTD SVG 20010904//EN"
 "http://www.w3.org/TR/2001/REC-SVG-20010904/DTD/svg10.dtd">
<svg version="1.0" xmlns="http://www.w3.org/2000/svg"
 width="512.000000pt" height="512.000000pt" viewBox="0 0 512.000000 512.000000"
 preserveAspectRatio="xMidYMid meet">

<g transform="translate(0.000000,512.000000) scale(0.100000,-0.100000)"
fill="#000000" stroke="none">
<path d="M3060 5107 c-49 -16 -133 -102 -148 -153 -28 -94 -8 -169 63 -239 31
-32 65 -55 91 -63 30 -9 199 -12 640 -12 l599 0 -762 -762 c-697 -699 -763
-767 -773 -808 -50 -189 111 -350 300 -300 41 10 109 76 808 773 l762 762 0
-599 c0 -425 3 -610 12 -637 26 -89 135 -169 228 -169 93 0 202 80 228 169 17
56 17 1827 0 1883 -6 22 -31 62 -55 88 -76 85 -13 80 -1047 79 -634 -1 -922
-4 -946 -12z"/>
<path d="M2030 2344 c-23 -9 -304 -283 -793 -772 l-757 -757 0 599 c0 441 -3
610 -12 640 -26 86 -136 166 -228 166 -92 0 -202 -80 -228 -166 -17 -59 -17
-1829 0 -1888 16 -55 99 -138 154 -154 58 -17 1829 -17 1885 0 89 26 169 135
169 228 0 93 -80 202 -169 228 -27 9 -212 12 -637 12 l-599 0 757 757 c531
532 762 769 773 795 33 81 6 208 -56 265 -63 58 -183 80 -259 47z"/>
</g>
</svg>
